/* XPM */
static char *_b62d3140fd646d3fdb05ebfc3081f5aUDlwuTNzLsovBohj[] = {
/* columns rows colors chars-per-pixel */
"64 64 6 1 ",
"  c #008E00",
". c #008F00",
"X c #009000",
"o c #009100",
"O c #009200",
"+ c #009300",
/* pixels */
"oooooo+o+oooooooo.ooooooooo.o.o..........o.o.o.o.ooooo+o+ooooooo",
"ooooooo+o++ooooo.o.ooooooo.o.o.o.......oo.o.o.o.ooooo+o+o+oooooo",
"oooooo+o+o+oooooo.ooooooooo.o.o........o.o.o.o.o.ooooo+o++oooooo",
"ooooooo+o+ooooo..o.ooooooo.o.o.oo.....o.o.o.o.o.o.ooo+o+oooooooo",
"oooooooo+o+oooooo.oooooooooo.oo..o.o.o.o.o.oo.o..ooooo+ooooooooo",
"ooooooooo+ooooooooooooooooooo..oo.o.o.o.o.o..o.oo.ooooo+oooooo.o",
"oooooooo+oo+ooooooooooooooooo.o..o.o.o.o.o.......ooooo+oooo.o.o.",
".o.oooooo+ooooooooooooooooooooooo.o.o.o.o.......o..oooo+oooo.o.o",
".o.ooooo+o+oooooooooooooooooooooooooo.o..........o.ooooooo.o....",
"o.o..oooo+ooooooooooooooooooooooooo..o.oo.........ooooooooo.o...",
".o.oo.ooooooooooooooooooooooooooooo.o.o.o........ooooooooooo....",
"...o.oooooooooooo.o..ooooooooooo.o.o.o.o..........ooooooooo.oo.o",
"......o.o.o.oo.o.o.oo.ooooooo.o.o..o.oo.o.o.......o.oooooooo.o.o",
".......o.o.oo.....o..o...oo..o.oo......o.o.oo....o.oooooooo.o.o.",
" ........o.........oo..o.o.oo.o.......o.o.o..o....o.oooooooooo.o",
" ....................oo.o.o..o.........o.o.oo....o.o.ooooooooooo",
"    .........    ....o.o.o.o.oo.......ooooo.o.o..o.oo.oooooooooo",
" ..........      .....o.ooo.o..o.....o.ooooo.o....o..oo.oooooooo",
".........        ...o.oooooo..o..o.o.oooooooo..oo...o.o.oooooooo",
"........         ....ooooooooo.oo.o.o.oooooo.oo........o.ooooooo",
"........        ...ooooooooooooooooooooooooo.o.oo........ooooo+o",
".o......        ....ooooooooooooooooooooooooooo.........ooooo+o+",
"o..o.....       ...ooooo+ooooooo+ooo+oooooooo.o.o........oooo++o",
".o........     ...o.ooooo+oooo+oo+ooo+oooooooo.o.o......o.oooooo",
"o.o.o................oooooo+o+o++o+o+o+oo+ooooo.o.....o..ooooooo",
".o.o.o..............oooooo+o+o+oo+++o+o++ooooo.o.o.o.o.oo..o.ooo",
"o.o.o.o.............o.ooo+o+o+o+++++++++o++oooo.o.o.o.o...o.o.o.",
".o.o.o.oo..........o.ooooo+o++++++++++++++oooo.o.o.ooooooo.o.o.o",
"o.o.o.o..o.o.......o.o.ooo+o++++++++++++++o+oo.oo.o.ooooooo.o...",
".o.o.o.oo.o........oo.ooooo+o++++++++++++o+oooo..ooooooooo.o....",
"o.o.o.o..o.oo.o...o...oooo+o+o+++++o++++++oooo.o.o.oooooooo.o...",
".o.o.o.oo.o..o.o.o.oooooo+o+o+o++oo+o+o+o+ooooo.o.oooooooo.o....",
"...oo.o.o.o.o.o..ooooooooo+o+oooo+o+o+o++o+ooo.o.o.ooooooo.o.o..",
".....o.o.ooo.o.oo.oooooo++o+o+oo+o+o+o+oo+o+ooo.o.ooooooooo.o.o.",
"....o.o.ooo.o.o..oooooo+o+ooooooooooooo++o+ooooo.o.ooooooo.o.o.o",
".....o.o.ooo.o.oo.oooo+ooooooooooooooo+oo+ooooooo.ooooooooo.o.o.",
"...oo.o.o.o.o.o..oooo+o++oooooooooooooo++o+ooooo.oooooooooo..o.o",
".oo..o.o.o.o.o.oo.oooo+oooooo..o.oooooooo+ooooo.o..oooooooooo.o.",
".o.oo.o.o.o.o..oo.ooo+oooooo.o.oo.ooooo++ooooooo.o.ooooooooooooo",
"o.o..o.o.o.o.....o.ooo+oooooo.o..oooooooooooooo.o.oooooooooooooo",
"oooo.o.o.o......o.ooooooooo.o..oo.o.oooooooooo.o.o.ooooooooooooo",
"ooooo.o.o........o.ooooooo.o.o.o.o.o.oooooooooo.o.o.oooooooooooo",
"ooo..o.o.........o.ooooooo.oo.....o..ooooooooo.o.o.ooooooooooooo",
".o.oo.o.o.........oooo+ooooo.o.....oo.ooooooo.o.o.o.oooooooooooo",
"o.o..o.o.o.o......ooooo+ooooo.o......oo.ooo.o..o.o.oo.o.oooooooo",
".o.oo.o.o.o.o....o.ooo+ooooo.o..........oo.o.oo.o.o..o.o.o.oo..o",
"o.o..o.o.o.o.o...oooooo+oooooo.o..........o.o......oo.o.o.o.o.o.",
"....o.o.o.o.o.....oooo+oooooo.o...................o..o.o.o.o.o.o",
"..o..o..ooo.o.o.o.o.oooooooooooo.....................o.o.oo.o.o.",
"o..ooooooooo.oo..o.oooooooooooo....................oo.o.o..o.o.o",
".oo.oooooooo.o.oo.o.ooooooooooo............. ........oooooo..oo.",
"ooooooooooooo.o..o.o.o.ooooooooo.o......       ....ooooooooooo.o",
"oooooooooooo.o.oo.o.o.o.oooooooooo......        ...o.ooooooooooo",
"ooooooooooooo.o..o.o.o.oooooooooo..o....        ..o.oooooooooooo",
"o+o+o+oooooooo.oo.o.o.o..oooooooo.o......      ....ooooooooooooo",
"+o+o+o+oooooo.o..o.o.o.ooooooooooo.o......     ...o.oooo+ooooooo",
"+o+o+o+ooooooooo.o.o.oo.ooooooooo.o.o..............o.oooo++o+o+o",
"++++o+o++oooooo.o.o.o..o.oooo.o..o.o.o..............ooooooo+o+o+",
"+++++++ooo+oo..o.o.o.oooooo.o..oo.o.o.o............o.ooooo+o+o+o",
"++++++++++o+ooo.o.o.oooooo.o.oo..o.o.o.o.o..........o.ooo+o+o+++",
"++++++++++o+ooo.o.ooooooooo..o.oo.o.o.o..o.........o.o.ooo+o++++",
"+++++++++++ooo.o.o.ooooooo.o.....o.o.o.oo.o.........o.ooooo+++++",
"++++++++++o+ooo.o.ooooooooo.....o.o.o.o..o.o.........ooooo+o++++",
"++++++++++oooo.o.ooooooooo.o.....o.o.o.oo.o.o.......ooooooo+++++"
};
